<?xml version="1.0" encoding="UTF-8"?>
<!DOCTYPE svg PUBLIC "-//W3C//DTD SVG 1.1//EN" "http://www.w3.org/Graphics/SVG/1.1/DTD/svg11.dtd">
<svg version="1.1" xmlns="http://www.w3.org/2000/svg" xmlns:xlink="http://www.w3.org/1999/xlink" x="0" y="0" width="274" height="274.08" viewBox="0, 0, 274, 274.08">
  <g id="Background">
    <!-- Background removed for transparency -->
  </g>
  <g id="Calque_1">
    <path d="M235.419,188.048 L235.419,86.011 C235.418,79.024 231.839,72.524 225.936,68.786 L147.826,19.453 C141.172,15.248 132.691,15.248 126.037,19.453 L47.996,68.786 C42.087,72.521 38.503,79.021 38.499,86.011 L38.499,188.048 C38.503,195.038 42.087,201.539 47.996,205.273 L126.106,254.606 C132.76,258.811 141.24,258.811 147.894,254.606 L226.004,205.273 C231.882,201.519 235.433,195.022 235.419,188.048 z" fill="#F4F4F4" id="path13"/>
    <path d="M137,263.157 C132.125,263.168 127.347,261.79 123.228,259.183 L45.118,209.85 C37.629,205.141 33.093,196.908 33.114,188.062 L33.114,86.011 C33.093,77.165 37.629,68.932 45.118,64.223 L123.228,14.89 C131.652,9.601 142.361,9.601 150.786,14.89 L228.896,64.223 C236.381,68.933 240.913,77.167 240.886,86.011 L240.886,188.048 C240.913,196.892 236.381,205.126 228.896,209.836 L150.786,259.169 C146.664,261.783 141.881,263.167 137,263.157 z M137,21.687 C134.166,21.681 131.39,22.485 128.997,24.003 L50.887,73.336 C46.538,76.075 43.904,80.858 43.912,85.998 L43.912,188.034 C43.904,193.174 46.538,197.957 50.887,200.696 L128.997,250.029 C133.892,253.095 140.108,253.095 145.003,250.029 L223.044,200.696 C227.397,197.96 230.033,193.175 230.02,188.034 L230.02,86.011 C230.033,80.87 227.397,76.085 223.044,73.349 L145.003,24.017 C142.609,22.499 139.834,21.691 137,21.687 z" fill="#176CB4" id="path15"/>
    <path d="M125.489,56.919 L112.539,56.905 L112.484,135.851 L125.448,123.258 z" fill="#D2D0D0" id="polygon17"/>
    <path d="M142.029,57.042 L129.066,57.042 L129.025,121.271 L141.988,108.677 z" fill="#D2D0D0" id="polygon19"/>
    <path d="M129.367,219.648 L142.317,219.648 L142.399,116.063 L129.422,128.657 z" fill="#D2D0D0" id="polygon21"/>
    <path d="M112.827,219.511 L112.882,143.237 L125.859,131.274 L125.791,219.511 z" fill="#D2D0D0" id="polygon23"/>
    <path d="M92.094,104.936 L109.552,104.936 L109.552,175.701 L92.094,175.701 z" fill="#D2D0D0" id="rect25"/>
    <path d="M145.14,104.963 L162.598,104.963 L162.598,175.728 L145.14,175.728 z" fill="#D2D0D0" id="rect27"/>
    <path d="M136.945,133.631 L119.679,151.007 L112.882,143.237 L142.344,116.145 z" fill="#D2D0D0" id="polygon29"/>
    <path d="M78.678,162.134 C74.431,162.263 70.204,161.493 66.276,159.873 C63.248,158.613 60.599,156.587 58.588,153.995 C56.876,151.783 55.881,149.1 55.738,146.307 C55.743,145.838 55.941,145.391 56.286,145.074 C56.642,144.699 57.141,144.495 57.657,144.512 L61.987,144.512 C62.544,144.47 63.094,144.658 63.508,145.032 C63.846,145.351 64.084,145.76 64.193,146.211 C64.542,147.71 65.258,149.099 66.276,150.253 C67.552,151.71 69.153,152.846 70.949,153.57 C73.419,154.548 76.063,155.014 78.719,154.94 Q86.037,154.94 89.462,152.35 C91.698,150.76 92.994,148.159 92.916,145.416 C92.989,143.633 92.324,141.898 91.079,140.62 C89.465,139.164 87.572,138.05 85.516,137.345 C83.022,136.385 79.801,135.344 75.827,134.207 C72.284,133.238 68.842,131.93 65.55,130.301 C63.093,129.113 60.998,127.292 59.479,125.025 C58.038,122.602 57.329,119.813 57.437,116.995 C57.392,114.066 58.254,111.194 59.904,108.773 C61.697,106.245 64.153,104.263 67.002,103.045 C70.557,101.538 74.394,100.814 78.253,100.921 C81.383,100.852 84.501,101.316 87.475,102.291 C89.89,103.099 92.124,104.37 94.053,106.032 C95.689,107.439 97.046,109.14 98.055,111.048 C98.891,112.665 99.359,114.449 99.425,116.269 C99.418,116.69 99.269,117.096 99,117.42 C98.66,117.814 98.148,118.019 97.63,117.968 L93.204,117.968 C92.77,117.961 92.345,117.843 91.97,117.625 C91.497,117.339 91.149,116.883 90.997,116.351 C90.558,113.945 89.119,111.838 87.037,110.554 C84.406,108.871 81.318,108.043 78.198,108.184 C75.072,108.047 71.969,108.783 69.236,110.308 C67.447,111.557 66.243,113.48 65.899,115.635 C65.555,117.79 66.102,119.992 67.413,121.736 C68.826,123.239 70.572,124.389 72.511,125.094 C75.483,126.274 78.516,127.294 81.597,128.15 C85.414,129.138 89.137,130.458 92.724,132.096 C95.29,133.213 97.506,135.003 99.137,137.276 C100.616,139.655 101.342,142.426 101.22,145.224 C101.328,148.488 100.366,151.699 98.479,154.365 C96.457,156.994 93.729,158.994 90.614,160.134 C86.796,161.543 82.747,162.222 78.678,162.134 z" fill="#DB246C" id="path31"/>
    <path d="M114.362,161.285 C113.847,161.297 113.35,161.093 112.991,160.723 C112.645,160.352 112.458,159.86 112.471,159.353 L112.471,103.853 C112.444,103.307 112.631,102.771 112.991,102.36 C113.351,101.993 113.848,101.795 114.362,101.812 L135.095,101.812 Q144.688,101.812 150.306,106.306 Q155.925,110.801 155.911,119.654 C156.076,123.478 154.92,127.243 152.636,130.315 C150.362,133.122 147.251,135.129 143.756,136.043 L156.843,158.654 C157.006,158.938 157.096,159.258 157.103,159.586 C157.097,160.046 156.892,160.48 156.541,160.778 C156.214,161.096 155.778,161.277 155.322,161.285 L151.211,161.285 C150.425,161.346 149.651,161.067 149.086,160.517 C148.652,160.036 148.254,159.523 147.894,158.983 L135.561,137.413 L120.734,137.413 L120.734,159.339 C120.749,159.852 120.551,160.348 120.186,160.709 C119.786,161.094 119.246,161.297 118.692,161.271 z M120.734,130.192 L134.753,130.192 C139.001,130.192 142.18,129.301 144.263,127.451 C146.466,125.423 147.626,122.503 147.415,119.516 C147.61,116.551 146.475,113.653 144.318,111.61 Q141.207,108.869 134.725,108.869 L120.734,108.869 z" fill="#DB246C" id="path33"/>
    <path d="M170.012,161.285 C169.473,161.316 168.948,161.111 168.573,160.723 C168.226,160.352 168.039,159.86 168.052,159.353 L168.052,103.853 C168.026,103.307 168.212,102.771 168.573,102.36 C168.949,101.975 169.475,101.775 170.012,101.812 L174.342,101.812 C174.897,101.765 175.443,101.965 175.837,102.359 C176.23,102.752 176.43,103.299 176.384,103.853 L176.384,127.3 L205.614,127.3 L205.614,103.853 C205.582,103.301 205.78,102.76 206.162,102.36 C206.525,101.999 207.02,101.801 207.532,101.812 L211.876,101.812 C212.429,101.77 212.973,101.972 213.365,102.364 C213.758,102.756 213.959,103.3 213.918,103.853 L213.918,159.325 C213.928,159.84 213.725,160.336 213.356,160.696 C212.961,161.078 212.426,161.282 211.876,161.257 L207.628,161.257 C207.114,161.263 206.62,161.06 206.258,160.696 C205.893,160.335 205.694,159.838 205.709,159.325 L205.709,134.947 L176.384,134.947 L176.384,159.325 C176.399,159.838 176.201,160.335 175.836,160.696 C175.436,161.08 174.896,161.284 174.342,161.257 z" fill="#DB246C" id="path35"/>
  </g>
</svg>
