<?xml version="1.0" encoding="UTF-8" standalone="no"?>
<svg
   id="Calque_1"
   data-name="Calque 1"
   viewBox="0 0 488.87 274.08"
   version="1.1"
   sodipodi:docname="LOGO_texte.svg"
   inkscape:version="1.1 (c4e8f9e, 2021-05-24)"
   xmlns:inkscape="http://www.inkscape.org/namespaces/inkscape"
   xmlns:sodipodi="http://sodipodi.sourceforge.net/DTD/sodipodi-0.dtd"
   xmlns="http://www.w3.org/2000/svg"
   xmlns:svg="http://www.w3.org/2000/svg">
  <sodipodi:namedview
     id="namedview106"
     pagecolor="#ffffff"
     bordercolor="#cccccc"
     borderopacity="1"
     inkscape:pageshadow="0"
     inkscape:pageopacity="1"
     inkscape:pagecheckerboard="0"
     showgrid="false"
     inkscape:zoom="1.908202"
     inkscape:cx="239.23044"
     inkscape:cy="38.517935"
     inkscape:window-width="1280"
     inkscape:window-height="751"
     inkscape:window-x="0"
     inkscape:window-y="23"
     inkscape:window-maximized="1"
     inkscape:current-layer="Calque_1" />
  <defs
     id="defs11">
    <style
       id="style9">.cls-1{fill:#f4f4f4;}.cls-2{fill:#176cb4;}.cls-3{fill:#d2d0d0;}.cls-4{fill:#db246c;}</style>
  </defs>
  <path
     class="cls-1"
     d="M 206.40546,188.51718 V 86.480728 A 20.390844,20.390844 0 0 0 196.92263,69.255397 L 118.81254,19.922711 a 20.390844,20.390844 0 0 0 -21.788601,0 L 18.982372,69.255397 A 20.390844,20.390844 0 0 0 9.4858289,86.480728 V 188.51718 a 20.390844,20.390844 0 0 0 9.4965431,17.22533 l 78.110089,49.33268 a 20.390844,20.390844 0 0 0 21.788599,0 l 78.11008,-49.33268 a 20.390844,20.390844 0 0 0 9.41432,-17.22533 z"
     id="path13"
     style="stroke-width:1.37036" />
  <path
     class="cls-2"
     d="M 107.98675,263.62619 A 25.639293,25.639293 0 0 1 94.214718,259.65218 L 16.104631,210.31949 A 25.666701,25.666701 0 0 1 4.1003439,188.53088 V 86.480728 A 25.666701,25.666701 0 0 1 16.104631,64.692124 L 94.214718,15.359437 a 25.913364,25.913364 0 0 1 27.557782,0 l 78.11009,49.332687 a 25.652998,25.652998 0 0 1 11.99058,21.788604 V 188.51718 a 25.652998,25.652998 0 0 1 -11.99058,21.7886 l -78.11009,49.33269 a 25.639293,25.639293 0 0 1 -13.78575,3.98772 z m 0,-241.469804 a 14.882028,14.882028 0 0 0 -8.002851,2.315895 L 21.873815,73.804968 a 14.936842,14.936842 0 0 0 -6.975094,12.66206 V 188.50347 a 14.936842,14.936842 0 0 0 6.975094,12.66206 l 78.110084,49.33269 a 15.073876,15.073876 0 0 0 16.005721,0 l 78.04157,-49.33269 a 14.909434,14.909434 0 0 0 6.97509,-12.66206 V 86.480728 A 14.909434,14.909434 0 0 0 194.03119,73.818672 L 115.98962,24.485984 a 14.991656,14.991656 0 0 0 -8.00287,-2.329598 z"
     id="path15"
     style="stroke-width:1.37036" />
  <polygon
     class="cls-3"
     points="127.06,71.16 117.61,71.15 117.57,128.76 127.03,119.57 "
     id="polygon17"
     transform="matrix(1.3703524,0,0,1.3703524,-77.641178,-40.126133)" />
  <polygon
     class="cls-3"
     points="139.13,71.25 129.67,71.25 129.64,118.12 139.1,108.93 "
     id="polygon19"
     transform="matrix(1.3703524,0,0,1.3703524,-77.641178,-40.126133)" />
  <polygon
     class="cls-3"
     points="129.89,189.91 139.34,189.91 139.4,114.32 129.93,123.51 "
     id="polygon21"
     transform="matrix(1.3703524,0,0,1.3703524,-77.641178,-40.126133)" />
  <polygon
     class="cls-3"
     points="117.82,189.81 117.86,134.15 127.33,125.42 127.28,189.81 "
     id="polygon23"
     transform="matrix(1.3703524,0,0,1.3703524,-77.641178,-40.126133)" />
  <rect
     class="cls-3"
     x="63.080307"
     y="105.4053"
     width="17.458288"
     height="70.764999"
     id="rect25"
     style="stroke-width:1.37036" />
  <rect
     class="cls-3"
     x="116.12664"
     y="105.43271"
     width="17.458288"
     height="70.764999"
     id="rect27"
     style="stroke-width:1.37036" />
  <polygon
     class="cls-3"
     points="135.42,127.14 122.82,139.82 117.86,134.15 139.36,114.38 "
     id="polygon29"
     transform="matrix(1.3703524,0,0,1.3703524,-77.641178,-40.126133)" />
  <path
     class="cls-4"
     d="m 49.664558,162.60381 a 30.147754,30.147754 0 0 1 -12.401685,-2.26108 18.938271,18.938271 0 0 1 -7.687678,-5.87881 13.703524,13.703524 0 0 1 -2.850333,-7.68768 1.699237,1.699237 0 0 1 0.548141,-1.23332 1.8088652,1.8088652 0 0 1 1.370353,-0.56184 h 4.330314 a 2.0418252,2.0418252 0 0 1 1.521091,0.52074 2.3981167,2.3981167 0 0 1 0.685176,1.1785 9.304693,9.304693 0 0 0 2.082936,4.04253 12.333171,12.333171 0 0 0 4.672901,3.31626 19.609743,19.609743 0 0 0 7.769894,1.37035 q 7.317684,0 10.743566,-2.58997 a 8.2221146,8.2221146 0 0 0 3.453293,-6.93397 6.4954705,6.4954705 0 0 0 -1.836273,-4.79624 16.129048,16.129048 0 0 0 -5.563632,-3.27514 c -2.494045,-0.95925 -5.714374,-2.00072 -9.688396,-3.13811 a 57.171103,57.171103 0 0 1 -10.27764,-3.90551 15.347947,15.347947 0 0 1 -6.070661,-5.27586 14.607957,14.607957 0 0 1 -2.041826,-8.03026 14.210555,14.210555 0 0 1 2.466635,-8.22211 16.800521,16.800521 0 0 1 7.098425,-5.72808 26.927425,26.927425 0 0 1 11.250591,-2.12405 27.653712,27.653712 0 0 1 9.222478,1.37036 19.59604,19.59604 0 0 1 6.57769,3.74106 17.252737,17.252737 0 0 1 4.001433,5.01549 12.333171,12.333171 0 0 1 1.370344,5.22105 1.8499758,1.8499758 0 0 1 -0.424807,1.1511 1.6033124,1.6033124 0 0 1 -1.370356,0.54814 h -4.42623 a 2.5488555,2.5488555 0 0 1 -1.233322,-0.34259 2.1925639,2.1925639 0 0 1 -0.972948,-1.27443 8.6332203,8.6332203 0 0 0 -3.960322,-5.79659 15.142395,15.142395 0 0 0 -8.838771,-2.37071 16.882742,16.882742 0 0 0 -8.962105,2.12404 8.0439688,8.0439688 0 0 0 -1.822569,11.42875 13.169087,13.169087 0 0 0 5.097712,3.35736 89.758084,89.758084 0 0 0 9.085434,3.05588 67.489857,67.489857 0 0 1 11.127262,3.94661 15.512389,15.512389 0 0 1 6.413247,5.17994 13.909077,13.909077 0 0 1 2.082938,7.94804 14.964248,14.964248 0 0 1 -2.7407,9.14026 17.513104,17.513104 0 0 1 -7.865823,5.76917 32.449945,32.449945 0 0 1 -11.935777,2.00072 z"
     id="path31"
     style="stroke-width:1.37036" />
  <path
     class="cls-4"
     d="m 85.348537,161.75419 a 1.8499758,1.8499758 0 0 1 -1.370355,-0.56185 1.932197,1.932197 0 0 1 -0.520729,-1.37034 v -55.49928 a 2.1103427,2.1103427 0 0 1 0.520729,-1.49368 1.8362722,1.8362722 0 0 1 1.370355,-0.54814 h 20.733433 q 9.59246,0 15.21091,4.49475 5.61845,4.49475 5.60474,13.34724 a 16.663485,16.663485 0 0 1 -3.27514,10.66134 16.937556,16.937556 0 0 1 -8.87988,5.72808 l 13.08685,22.61081 a 1.959604,1.959604 0 0 1 0.26038,0.93183 1.5896088,1.5896088 0 0 1 -0.56185,1.19222 1.7951617,1.7951617 0 0 1 -1.21961,0.50702 h -4.11106 a 2.7407049,2.7407049 0 0 1 -2.12405,-0.76739 13.265011,13.265011 0 0 1 -1.1922,-1.5348 L 106.54789,137.88265 H 91.720683 v 21.92564 a 1.8499758,1.8499758 0 0 1 -0.54815,1.37035 2.0144181,2.0144181 0 0 1 -1.493677,0.56185 z m 6.372146,-31.09329 h 14.018707 c 4.24808,0 7.4273,-0.89073 9.51024,-2.74071 a 9.8391304,9.8391304 0 0 0 3.1518,-7.93433 9.9898692,9.9898692 0 0 0 -3.09699,-7.90694 q -3.1107,-2.74071 -9.59246,-2.74071 H 91.720683 Z"
     id="path33"
     style="stroke-width:1.37036" />
  <path
     class="cls-4"
     d="m 140.99854,161.75419 a 1.8499758,1.8499758 0 0 1 -1.43886,-0.56185 1.932197,1.932197 0 0 1 -0.52074,-1.37034 v -55.49928 a 2.1103427,2.1103427 0 0 1 0.52074,-1.49368 1.8362722,1.8362722 0 0 1 1.43886,-0.54814 h 4.33032 a 1.8910863,1.8910863 0 0 1 2.04182,2.04182 v 23.44674 h 29.22962 v -23.44674 a 2.0007145,2.0007145 0 0 1 0.54814,-1.49368 1.8910863,1.8910863 0 0 1 1.37036,-0.54814 h 4.34402 a 1.9047899,1.9047899 0 0 1 2.04181,2.04182 v 55.47187 a 1.8636793,1.8636793 0 0 1 -0.56184,1.37035 2.0007145,2.0007145 0 0 1 -1.47997,0.56184 h -4.2481 a 1.9047899,1.9047899 0 0 1 -1.37036,-0.56184 1.8499758,1.8499758 0 0 1 -0.54814,-1.37035 v -24.37857 h -29.32554 v 24.37857 a 1.8499758,1.8499758 0 0 1 -0.54814,1.37035 2.0144181,2.0144181 0 0 1 -1.49368,0.56184 z"
     id="path35"
     style="stroke-width:1.37036" />
  <path
     class="cls-2"
     d="m 247.13235,112.05151 a 15.498686,15.498686 0 0 1 -6.50918,-1.21961 9.4280246,9.4280246 0 0 1 -4.00144,-3.15181 7.632863,7.632863 0 0 1 -1.43886,-4.11107 0.91813612,0.91813612 0 0 1 0.26036,-0.67147 0.83591498,0.83591498 0 0 1 0.64407,-0.26036 h 3.13811 a 1.0825784,1.0825784 0 0 1 0.7674,0.24666 1.6444229,1.6444229 0 0 1 0.4248,0.60295 4.809937,4.809937 0 0 0 1.04147,1.8911 5.5636308,5.5636308 0 0 0 2.16516,1.52108 8.7017379,8.7017379 0 0 0 3.50811,0.61667 8.4002603,8.4002603 0 0 0 4.96067,-1.19222 3.8369868,3.8369868 0 0 0 1.6033,-3.24773 3.1381071,3.1381071 0 0 0 -0.83591,-2.26108 7.4273101,7.4273101 0 0 0 -2.64478,-1.562211 c -1.20591,-0.46591 -2.7407,-0.959246 -4.6866,-1.493676 a 28.777401,28.777401 0 0 1 -5.24845,-2.041827 7.3039784,7.3039784 0 0 1 -4.23439,-7.166951 7.8247124,7.8247124 0 0 1 1.37035,-4.467341 8.8798837,8.8798837 0 0 1 3.74107,-3.110707 13.6076,13.6076 0 0 1 5.8651,-1.15109 13.895374,13.895374 0 0 1 4.80994,0.767394 10.633934,10.633934 0 0 1 3.45328,2.014416 9.1813612,9.1813612 0 0 1 2.12405,2.74071 6.6462092,6.6462092 0 0 1 0.78111,2.7407 1.0277643,1.0277643 0 0 1 -0.23297,0.644072 0.83591498,0.83591498 0 0 1 -0.67147,0.287775 h -3.30255 a 1.3703524,1.3703524 0 0 1 -0.67147,-0.178153 1.1922066,1.1922066 0 0 1 -0.49332,-0.671473 4.1110573,4.1110573 0 0 0 -1.82257,-2.740699 6.8517622,6.8517622 0 0 0 -4.01514,-1.09628 7.3587925,7.3587925 0 0 0 -4.11105,1.014058 3.4121776,3.4121776 0 0 0 -1.5485,3.069586 3.5081022,3.5081022 0 0 0 0.72628,2.274792 6.1117718,6.1117718 0 0 0 2.34331,1.644419 38.561718,38.561718 0 0 0 4.37143,1.452577 32.888458,32.888458 0 0 1 5.81028,2.041817 7.9069335,7.9069335 0 0 1 3.32996,2.740711 7.7287877,7.7287877 0 0 1 1.08258,4.275501 8.2221146,8.2221146 0 0 1 -1.47998,4.94697 9.5924669,9.5924669 0 0 1 -4.11106,3.13811 16.444229,16.444229 0 0 1 -6.2625,1.12369 z"
     id="path37"
     style="stroke-width:1.37036" />
  <path
     class="cls-2"
     d="m 266.8106,120.09548 a 0.80850793,0.80850793 0 0 1 -0.60296,-0.26037 0.89072908,0.89072908 0 0 1 -0.24665,-0.63036 0.83591498,0.83591498 0 0 1 0,-0.32889 c 0,-0.10962 0,-0.24666 0.12333,-0.4248 l 3.35736,-8.22212 -8.22212,-20.226408 a 1.9870111,1.9870111 0 0 1 -0.21925,-0.726283 1.1236889,1.1236889 0 0 1 0.30147,-0.644072 0.83591498,0.83591498 0 0 1 0.64407,-0.287765 h 3.00107 a 0.98665374,0.98665374 0 0 1 0.72629,0.246654 1.2333171,1.2333171 0 0 1 0.35629,0.561851 l 6.09807,15.389063 6.2214,-15.389063 a 1.5759053,1.5759053 0 0 1 0.3837,-0.561851 1.0551714,1.0551714 0 0 1 0.73998,-0.246654 h 2.83664 a 0.86332203,0.86332203 0 0 1 0.61666,0.260365 0.8496185,0.8496185 0 0 1 0.28777,0.630361 2.3021921,2.3021921 0 0 1 -0.21925,0.767394 l -12.15503,29.311848 a 1.699237,1.699237 0 0 1 -0.3974,0.54814 1.0551714,1.0551714 0 0 1 -0.7674,0.24667 z"
     id="path39"
     style="stroke-width:1.37036" />
  <path
     class="cls-2"
     d="m 287.21515,111.59929 a 0.9044326,0.9044326 0 0 1 -0.69888,-0.28778 1.0551714,1.0551714 0 0 1 -0.28777,-0.78109 V 89.399581 a 1.0551714,1.0551714 0 0 1 0.28777,-0.781104 0.9044326,0.9044326 0 0 1 0.69888,-0.287776 h 2.83663 a 1.0140608,1.0140608 0 0 1 0.75369,0.287776 1.0414678,1.0414678 0 0 1 0.27407,0.781104 v 1.877384 a 9.2224718,9.2224718 0 0 1 2.86404,-2.439234 8.9346978,8.9346978 0 0 1 4.31661,-0.959248 8.3865568,8.3865568 0 0 1 4.64549,1.260734 8.0165617,8.0165617 0 0 1 2.95996,3.480693 12.71687,12.71687 0 0 1 1.02777,5.330667 v 12.579843 a 1.1099855,1.1099855 0 0 1 -0.27407,0.78109 0.95924669,0.95924669 0 0 1 -0.71259,0.28778 h -3.05588 a 0.95924669,0.95924669 0 0 1 -0.73999,-0.28778 1.0551714,1.0551714 0 0 1 -0.28777,-0.78109 V 98.197241 a 6.7010233,6.7010233 0 0 0 -1.37035,-4.453641 4.7414194,4.7414194 0 0 0 -3.86439,-1.589609 4.9606758,4.9606758 0 0 0 -3.86441,1.589609 6.3173246,6.3173246 0 0 0 -1.46627,4.453641 v 12.333179 a 1.0140608,1.0140608 0 0 1 -0.30148,0.78109 0.98665374,0.98665374 0 0 1 -0.72628,0.28778 z"
     id="path41"
     style="stroke-width:1.37036" />
  <path
     class="cls-2"
     d="m 320.03509,112.05151 a 9.0717331,9.0717331 0 0 1 -3.97402,-0.83592 7.8658229,7.8658229 0 0 1 -2.80922,-2.27478 10.483196,10.483196 0 0 1 -1.69924,-3.41218 16.773113,16.773113 0 0 1 -0.65777,-4.17958 c 0,-0.50703 0,-0.97294 0,-1.370341 0,-0.39741 0,-0.90444 0,-1.37036 a 16.512746,16.512746 0 0 1 0.64407,-4.111055 10.168015,10.168015 0 0 1 1.67183,-3.412182 8.0850793,8.0850793 0 0 1 2.83663,-2.398114 8.9484013,8.9484013 0 0 1 3.98772,-0.849626 8.5921097,8.5921097 0 0 1 4.11106,0.877026 8.2221146,8.2221146 0 0 1 2.74071,2.206271 V 80.903397 a 1.0140608,1.0140608 0 0 1 0.30147,-0.781105 0.94554317,0.94554317 0 0 1 0.72628,-0.301475 h 2.80923 a 0.94554317,0.94554317 0 0 1 0.72629,0.301475 1.0140608,1.0140608 0 0 1 0.30147,0.781105 v 29.627023 a 1.0140608,1.0140608 0 0 1 -0.30147,0.78109 0.98665374,0.98665374 0 0 1 -0.72629,0.28778 h -2.7407 a 0.97295022,0.97295022 0 0 1 -0.7537,-0.28778 1.0551714,1.0551714 0 0 1 -0.28777,-0.78109 v -1.75405 a 8.496185,8.496185 0 0 1 -2.74071,2.357 8.8250696,8.8250696 0 0 1 -4.16587,0.91814 z m 1.28814,-4.30291 a 4.9469722,4.9469722 0 0 0 3.12439,-0.91814 5.4814097,5.4814097 0 0 0 1.74035,-2.3433 9.1950648,9.1950648 0 0 0 0.60295,-2.95995 18.033838,18.033838 0 0 0 0,-3.439601 7.9754511,7.9754511 0 0 0 -0.63036,-2.7407 5.3443744,5.3443744 0 0 0 -1.75405,-2.247381 5.125118,5.125118 0 0 0 -3.08328,-0.863315 4.9880829,4.9880829 0 0 0 -3.11071,0.890726 4.8647511,4.8647511 0 0 0 -1.67183,2.370703 11.78503,11.78503 0 0 0 -0.57554,3.179217 17.567918,17.567918 0 0 0 0,2.740711 11.78503,11.78503 0 0 0 0.57554,3.17922 4.8647511,4.8647511 0 0 0 1.67183,2.37072 5.0703039,5.0703039 0 0 0 3.11071,0.78109 z"
     id="path43"
     style="stroke-width:1.37036" />
  <path
     class="cls-2"
     d="m 337.69893,84.260758 a 0.91813612,0.91813612 0 0 1 -0.71258,-0.301476 1.0414678,1.0414678 0 0 1 -0.27408,-0.726293 v -2.864032 a 1.1373925,1.1373925 0 0 1 0.27408,-0.767394 0.93183964,0.93183964 0 0 1 0.71258,-0.315186 h 3.39847 a 1.0140608,1.0140608 0 0 1 0.7263,0.315186 1.0962819,1.0962819 0 0 1 0.30147,0.767394 v 2.836631 a 1.0277643,1.0277643 0 0 1 -1.02777,1.027759 z m 0.26037,27.407052 a 0.95924669,0.95924669 0 0 1 -0.71259,-0.28777 1.0414678,1.0414678 0 0 1 -0.27406,-0.78111 V 89.399581 a 1.0414678,1.0414678 0 0 1 0.27406,-0.781104 0.95924669,0.95924669 0 0 1 0.71259,-0.287776 h 2.91885 a 0.95924669,0.95924669 0 0 1 0.71258,0.287776 1.1099855,1.1099855 0 0 1 0.27408,0.781104 v 21.130839 a 1.1099855,1.1099855 0 0 1 -0.27408,0.78109 0.95924669,0.95924669 0 0 1 -0.71258,0.28778 z"
     id="path45"
     style="stroke-width:1.37036" />
  <path
     class="cls-2"
     d="m 356.47276,112.05151 a 11.264297,11.264297 0 0 1 -5.37178,-1.21961 8.4139639,8.4139639 0 0 1 -3.54922,-3.53552 12.196137,12.196137 0 0 1 -1.37034,-5.48141 c 0,-0.43851 0,-1.02776 0,-1.76775 0,-0.739981 0,-1.370361 0,-1.808868 a 12.127619,12.127619 0 0 1 1.37034,-5.563631 8.6195167,8.6195167 0 0 1 3.54922,-3.521804 11.428739,11.428739 0 0 1 5.37178,-1.205912 12.072805,12.072805 0 0 1 4.50846,0.767393 8.9758084,8.9758084 0 0 1 4.87846,4.426241 6.2076964,6.2076964 0 0 1 0.65777,2.411824 0.79480441,0.79480441 0 0 1 -0.27408,0.739983 1.1099855,1.1099855 0 0 1 -0.75369,0.287775 h -3.00108 a 1.0003573,1.0003573 0 0 1 -0.67147,-0.191843 2.1925639,2.1925639 0 0 1 -0.45221,-0.698883 5.3169674,5.3169674 0 0 0 -1.86368,-2.891442 5.1114145,5.1114145 0 0 0 -2.98736,-0.808505 4.8784547,4.8784547 0 0 0 -3.74107,1.521088 7.2628678,7.2628678 0 0 0 -1.50739,4.837348 29.681833,29.681833 0 0 0 0,3.124406 7.2217573,7.2217573 0 0 0 1.50739,4.85104 4.9195652,4.9195652 0 0 0 3.74107,1.50739 5.1388216,5.1388216 0 0 0 3.00106,-0.8085 5.358078,5.358078 0 0 0 1.84998,-2.74071 2.1925639,2.1925639 0 0 1 0.45221,-0.69888 1.0140608,1.0140608 0 0 1 0.67147,-0.20555 h 3.00108 a 1.0551714,1.0551714 0 0 1 0.75369,0.30148 0.78110088,0.78110088 0 0 1 0.27408,0.72628 6.7010233,6.7010233 0 0 1 -0.39741,1.86368 8.2221146,8.2221146 0 0 1 -1.13739,2.04183 8.6743308,8.6743308 0 0 1 -1.9459,1.84997 9.7295022,9.7295022 0 0 1 -2.80923,1.37036 12.620946,12.620946 0 0 1 -3.75476,0.52073 z"
     id="path47"
     style="stroke-width:1.37036" />
  <path
     class="cls-2"
     d="m 376.79508,112.05151 a 8.6195167,8.6195167 0 0 1 -3.97402,-0.91814 7.9069335,7.9069335 0 0 1 -2.86403,-2.43922 6.2214,6.2214 0 0 1 1.37036,-8.41397 14.032409,14.032409 0 0 1 6.38583,-2.466636 l 6.09807,-0.890726 v -1.08258 a 4.4262383,4.4262383 0 0 0 -1.02777,-3.124407 4.494756,4.494756 0 0 0 -3.43958,-1.12369 4.9058617,4.9058617 0 0 0 -2.7407,0.712583 4.3166101,4.3166101 0 0 0 -1.61702,1.863684 0.9044326,0.9044326 0 0 1 -0.90444,0.616651 h -2.74069 a 0.86332203,0.86332203 0 0 1 -0.71259,-0.287765 1.0277643,1.0277643 0 0 1 -0.23296,-0.698883 3.9329115,3.9329115 0 0 1 0.50704,-1.712941 7.0436115,7.0436115 0 0 1 1.5896,-1.973306 8.6606273,8.6606273 0 0 1 2.74071,-1.603319 11.442443,11.442443 0 0 1 4.11105,-0.657762 12.48391,12.48391 0 0 1 4.46735,0.698872 7.5780489,7.5780489 0 0 1 2.87774,1.849984 7.2491643,7.2491643 0 0 1 1.5622,2.7407 10.277643,10.277643 0 0 1 0.49333,3.179218 v 14.237963 a 1.0414678,1.0414678 0 0 1 -0.27407,0.7811 0.95924669,0.95924669 0 0 1 -0.71259,0.28778 h -2.83662 a 0.95924669,0.95924669 0 0 1 -0.73999,-0.28778 1.0551714,1.0551714 0 0 1 -0.28778,-0.7811 v -1.86367 a 7.2902749,7.2902749 0 0 1 -1.47997,1.60331 7.5780489,7.5780489 0 0 1 -2.31591,1.26072 10.03098,10.03098 0 0 1 -3.30255,0.49333 z m 1.19222,-3.85069 a 6.3173246,6.3173246 0 0 0 2.97366,-0.71259 4.9606758,4.9606758 0 0 0 2.09664,-2.26108 8.5098885,8.5098885 0 0 0 0.7811,-3.83699 v -1.06887 l -4.64549,0.7674 a 9.6746881,9.6746881 0 0 0 -4.11107,1.37035 2.8366295,2.8366295 0 0 0 -1.37034,2.39812 2.7407049,2.7407049 0 0 0 0.61665,1.84997 3.9192079,3.9192079 0 0 0 1.61702,1.1648 5.4814097,5.4814097 0 0 0 2.04183,0.32889 z"
     id="path49"
     style="stroke-width:1.37036" />
  <path
     class="cls-2"
     d="m 402.99622,111.59929 a 8.2221146,8.2221146 0 0 1 -4.11105,-0.94554 5.7280731,5.7280731 0 0 1 -2.42553,-2.74071 10.962819,10.962819 0 0 1 -0.7948,-4.42624 V 92.523978 h -3.35736 a 0.95924669,0.95924669 0 0 1 -0.74,-0.287765 1.0414678,1.0414678 0 0 1 -0.28777,-0.739994 v -2.096638 a 1.0551714,1.0551714 0 0 1 0.28777,-0.781104 0.95924669,0.95924669 0 0 1 0.74,-0.287776 h 3.35736 v -7.427304 a 1.1099855,1.1099855 0 0 1 0.27407,-0.781105 0.97295022,0.97295022 0 0 1 0.7537,-0.301475 h 2.83663 a 0.91813612,0.91813612 0 0 1 0.71258,0.301475 1.1099855,1.1099855 0 0 1 0.27407,0.781105 v 7.427304 h 5.37178 a 0.95924669,0.95924669 0 0 1 0.71259,0.287776 1.1099855,1.1099855 0 0 1 0.27406,0.781104 v 2.110338 a 1.0962819,1.0962819 0 0 1 -0.27406,0.739994 0.95924669,0.95924669 0 0 1 -0.71259,0.287775 h -5.37178 v 10.510602 a 6.0021436,6.0021436 0 0 0 0.67147,3.097 2.4529308,2.4529308 0 0 0 2.30219,1.10998 h 2.74071 a 1.0414678,1.0414678 0 0 1 0.73998,0.28778 1.0551714,1.0551714 0 0 1 0.30149,0.73999 v 2.24738 a 1.0688748,1.0688748 0 0 1 -0.30149,0.78109 1.0414678,1.0414678 0 0 1 -0.73998,0.28778 z"
     id="path51"
     style="stroke-width:1.37036" />
  <path
     class="cls-2"
     d="m 427.90923,112.05151 a 9.0717331,9.0717331 0 0 1 -3.97402,-0.83592 7.8658229,7.8658229 0 0 1 -2.74071,-2.27478 10.483196,10.483196 0 0 1 -1.69923,-3.41218 16.773113,16.773113 0 0 1 -0.65777,-4.17958 c 0,-0.50703 0,-0.97294 0,-1.370341 0,-0.39741 0,-0.90444 0,-1.37036 a 16.512746,16.512746 0 0 1 0.64406,-4.111055 10.168015,10.168015 0 0 1 1.67183,-3.412182 8.0850793,8.0850793 0 0 1 2.75441,-2.398114 8.9484013,8.9484013 0 0 1 3.98773,-0.849626 8.5921097,8.5921097 0 0 1 4.11106,0.877026 8.2221146,8.2221146 0 0 1 2.7407,2.206271 V 80.903397 a 1.0140608,1.0140608 0 0 1 0.30147,-0.781105 0.94554317,0.94554317 0 0 1 0.7263,-0.301475 h 2.95996 a 0.94554317,0.94554317 0 0 1 0.72628,0.301475 1.0140608,1.0140608 0 0 1 0.30148,0.781105 v 29.627023 a 1.0140608,1.0140608 0 0 1 -0.30148,0.78109 0.98665374,0.98665374 0 0 1 -0.72628,0.28778 h -2.74071 a 0.95924669,0.95924669 0 0 1 -0.73999,-0.28778 1.0551714,1.0551714 0 0 1 -0.28777,-0.78109 v -1.75405 a 8.496185,8.496185 0 0 1 -2.74071,2.357 8.8250696,8.8250696 0 0 1 -4.31661,0.91814 z m 1.28814,-4.30291 a 4.9469722,4.9469722 0 0 0 3.12439,-0.91814 5.4814097,5.4814097 0 0 0 1.74036,-2.3433 9.1950648,9.1950648 0 0 0 0.60295,-2.95995 18.033838,18.033838 0 0 0 0,-3.439601 7.9754511,7.9754511 0 0 0 -0.63036,-2.7407 5.3443744,5.3443744 0 0 0 -1.75406,-2.247381 5.125118,5.125118 0 0 0 -3.08328,-0.863315 4.9880829,4.9880829 0 0 0 -3.11071,0.890726 4.8647511,4.8647511 0 0 0 -1.67183,2.370703 11.78503,11.78503 0 0 0 -0.57554,3.179217 17.567918,17.567918 0 0 0 0,2.740711 11.78503,11.78503 0 0 0 0.57554,3.17922 4.8647511,4.8647511 0 0 0 1.67183,2.37072 5.0703039,5.0703039 0 0 0 3.11071,0.78109 z"
     id="path53"
     style="stroke-width:1.37036" />
  <path
     class="cls-2"
     d="m 454.12407,112.05151 a 9.6746881,9.6746881 0 0 1 -7.33138,-2.80922 11.880955,11.880955 0 0 1 -2.94626,-7.97546 c 0,-0.32887 0,-0.75369 0,-1.288121 0,-0.53444 0,-0.95925 0,-1.26073 a 14.046113,14.046113 0 0 1 1.43887,-5.728072 9.304693,9.304693 0 0 1 3.53551,-3.741069 11.483553,11.483553 0 0 1 10.96282,0.164443 9.4691353,9.4691353 0 0 1 3.46699,4.111055 14.607957,14.607957 0 0 1 1.20591,6.139183 v 0.890731 a 1.0688748,1.0688748 0 0 1 -0.30148,0.7674 0.94554317,0.94554317 0 0 1 -0.72628,0.30148 h -14.52573 v 0.37 a 8.756552,8.756552 0 0 0 0.64406,3.11069 5.5773344,5.5773344 0 0 0 1.76775,2.31589 4.4536453,4.4536453 0 0 0 2.74071,0.87703 5.1525251,5.1525251 0 0 0 2.23367,-0.42481 5.8788119,5.8788119 0 0 0 1.47998,-0.95925 6.536581,6.536581 0 0 0 0.7948,-0.84961 2.4255238,2.4255238 0 0 1 0.60296,-0.65777 1.7814581,1.7814581 0 0 1 0.72629,-0.10962 h 2.95996 a 1.0277643,1.0277643 0 0 1 0.71258,0.24666 0.71258327,0.71258327 0 0 1 0.23297,0.65776 3.7547656,3.7547656 0 0 1 -0.69889,1.71294 9.0306225,9.0306225 0 0 1 -1.89108,1.97331 10.688748,10.688748 0 0 1 -3.02849,1.58961 12.71687,12.71687 0 0 1 -4.05624,0.57555 z m -5.20733,-13.963901 h 10.48319 v -0.137032 a 8.1398934,8.1398934 0 0 0 -0.61665,-3.26144 5.125118,5.125118 0 0 0 -1.80888,-2.261081 5.2347462,5.2347462 0 0 0 -5.67325,0 5.1662286,5.1662286 0 0 0 -1.78146,2.261081 8.3865568,8.3865568 0 0 0 -0.60295,3.26144 z"
     id="path55"
     style="stroke-width:1.37036" />
  <path
     class="cls-2"
     d="m 476.58415,112.05151 a 13.14168,13.14168 0 0 1 -4.2755,-0.63036 9.9076481,9.9076481 0 0 1 -2.91885,-1.5485 6.8517622,6.8517622 0 0 1 -1.67183,-1.84998 3.946615,3.946615 0 0 1 -0.57555,-1.52109 0.78110088,0.78110088 0 0 1 0.30148,-0.7674 1.0688748,1.0688748 0 0 1 0.68518,-0.26036 h 2.74071 a 0.78110088,0.78110088 0 0 1 0.34258,0 2.2199709,2.2199709 0 0 1 0.3974,0.34258 l 1.19221,1.12369 a 5.7554802,5.7554802 0 0 0 1.5759,0.95925 6.2076964,6.2076964 0 0 0 2.30219,0.3837 5.8239978,5.8239978 0 0 0 3.15182,-0.79481 2.4803379,2.4803379 0 0 0 1.26072,-2.24738 2.3981167,2.3981167 0 0 0 -0.53444,-1.61701 4.3988312,4.3988312 0 0 0 -1.90478,-1.12369 35.341389,35.341389 0 0 0 -3.91921,-1.06888 14.018705,14.018705 0 0 1 -4.02884,-1.507381 5.906219,5.906219 0 0 1 -2.26108,-2.233677 6.3173246,6.3173246 0 0 1 -0.71258,-3.014775 6.1665859,6.1665859 0 0 1 0.97295,-3.247739 7.1806467,7.1806467 0 0 1 2.90514,-2.589967 10.332457,10.332457 0 0 1 4.80994,-1.014059 11.689107,11.689107 0 0 1 3.93291,0.602962 10.113201,10.113201 0 0 1 2.74071,1.479976 6.8517622,6.8517622 0 0 1 1.65812,1.767752 3.5766199,3.5766199 0 0 1 0.60296,1.521088 0.9044326,0.9044326 0 0 1 -0.26038,0.781104 0.95924669,0.95924669 0 0 1 -0.68517,0.287775 h -2.57625 a 0.75369383,0.75369383 0 0 1 -0.37,-0.09588 2.0007145,2.0007145 0 0 1 -0.34259,-0.287775 q -0.46593,-0.493329 -1.02777,-1.027769 a 4.7551229,4.7551229 0 0 0 -1.37035,-0.918137 5.6184449,5.6184449 0 0 0 -2.24738,-0.383697 4.1110573,4.1110573 0 0 0 -2.7407,0.835916 2.6447802,2.6447802 0 0 0 -0.94555,2.069238 2.3295991,2.3295991 0 0 0 0.42482,1.370344 3.7821727,3.7821727 0 0 0 1.72664,1.123691 26.461505,26.461505 0 0 0 3.82328,1.096279 14.457218,14.457218 0 0 1 4.54957,1.58961 6.0295507,6.0295507 0 0 1 2.35701,2.343311 6.4543599,6.4543599 0 0 1 0.69888,3.00107 6.1528823,6.1528823 0 0 1 -1.09628,3.56292 7.4547172,7.4547172 0 0 1 -3.24774,2.50774 13.703524,13.703524 0 0 1 -5.4403,1.00036 z"
     id="path57"
     style="stroke-width:1.37036" />
  <path
     class="cls-2"
     d="m 238.21134,156.82093 a 0.98665374,0.98665374 0 0 1 -0.72628,-0.28778 1.0551714,1.0551714 0 0 1 -0.28778,-0.7811 v -29.18851 a 1.0551714,1.0551714 0 0 1 0.28778,-0.7811 0.98665374,0.98665374 0 0 1 0.72628,-0.28778 h 11.20949 a 12.744278,12.744278 0 0 1 8.22212,2.43924 8.6880344,8.6880344 0 0 1 3.02847,7.18064 8.9072908,8.9072908 0 0 1 -1.65812,5.57734 9.1950648,9.1950648 0 0 1 -4.45365,3.1107 l 6.6051,11.57948 a 1.2333171,1.2333171 0 0 1 0.12333,0.49332 0.91813612,0.91813612 0 0 1 -0.91813,0.94555 h -3.15181 a 1.5896088,1.5896088 0 0 1 -1.17851,-0.3974 4.809937,4.809937 0 0 1 -0.58925,-0.80852 l -6.02955,-10.96282 h -6.85176 v 11.09986 a 0.98665374,0.98665374 0 0 1 -1.06888,1.06888 z m 4.34402,-16.64979 h 6.72843 a 6.3584353,6.3584353 0 0 0 4.41253,-1.37035 4.8647511,4.8647511 0 0 0 1.43888,-3.78217 4.9743793,4.9743793 0 0 0 -1.43888,-3.80958 6.2899176,6.2899176 0 0 0 -4.41253,-1.37036 h -6.72843 z"
     id="path59"
     style="stroke-width:1.37036" />
  <path
     class="cls-2"
     d="m 272.27831,157.27314 a 9.1813612,9.1813612 0 0 1 -4.11106,-0.91813 8.0850793,8.0850793 0 0 1 -2.94626,-2.43923 5.7143696,5.7143696 0 0 1 -1.10999,-3.45329 5.8239978,5.8239978 0 0 1 2.50775,-4.96067 14.786103,14.786103 0 0 1 6.57769,-2.46664 l 6.28992,-0.89073 v -1.08258 a 4.3714242,4.3714242 0 0 0 -1.05517,-3.1244 4.7140124,4.7140124 0 0 0 -3.54921,-1.12369 5.2484498,5.2484498 0 0 0 -2.86404,0.71258 4.5084594,4.5084594 0 0 0 -1.58961,1.86368 0.91813612,0.91813612 0 0 1 -0.91814,0.61666 h -2.83662 a 0.91813612,0.91813612 0 0 1 -0.73999,-0.28778 1.0277643,1.0277643 0 0 1 -0.23297,-0.69887 3.7958763,3.7958763 0 0 1 0.52074,-1.71294 7.0710186,7.0710186 0 0 1 1.64442,-1.97331 8.9758084,8.9758084 0 0 1 2.85033,-1.60332 12.113915,12.113915 0 0 1 4.23439,-0.65777 13.127976,13.127976 0 0 1 4.60438,0.69889 7.8795265,7.8795265 0 0 1 2.97368,1.84997 7.1943502,7.1943502 0 0 1 1.61701,2.74071 9.9076481,9.9076481 0 0 1 0.50703,3.17922 v 14.23796 a 1.0551714,1.0551714 0 0 1 -0.28778,0.7811 0.98665374,0.98665374 0 0 1 -0.72628,0.28778 h -2.93255 a 1.0414678,1.0414678 0 0 1 -0.7674,-0.28778 1.0551714,1.0551714 0 0 1 -0.28777,-0.7811 v -1.86368 a 7.2902749,7.2902749 0 0 1 -1.5348,1.60331 7.8247124,7.8247124 0 0 1 -2.38441,1.26072 10.661342,10.661342 0 0 1 -3.45329,0.49333 z m 1.24702,-3.85069 a 6.6462092,6.6462092 0 0 0 3.05588,-0.71258 5.0977111,5.0977111 0 0 0 2.16516,-2.26108 8.3180392,8.3180392 0 0 0 0.7948,-3.83699 v -1.06888 l -4.78252,0.7674 a 10.099497,10.099497 0 0 0 -4.2481,1.37036 2.8366295,2.8366295 0 0 0 -1.37034,2.39811 2.7407049,2.7407049 0 0 0 0.64406,1.84998 4.0151327,4.0151327 0 0 0 1.67183,1.12369 5.8377013,5.8377013 0 0 0 2.06923,0.36999 z"
     id="path61"
     style="stroke-width:1.37036" />
  <path
     class="cls-2"
     d="m 298.72611,157.27314 a 9.5924669,9.5924669 0 0 1 -4.11106,-0.83591 8.0439688,8.0439688 0 0 1 -2.89144,-2.27479 10.318754,10.318754 0 0 1 -1.75406,-3.41218 16.156455,16.156455 0 0 1 -0.68517,-4.11105 c 0,-0.50703 0,-0.97296 0,-1.37036 0,-0.3974 0,-0.90443 0,-1.37035 a 16.526451,16.526451 0 0 1 0.65777,-4.11105 10.017276,10.017276 0 0 1 1.72665,-3.41219 8.4413709,8.4413709 0 0 1 2.93255,-2.30219 9.4554317,9.4554317 0 0 1 4.11105,-0.84961 9.044326,9.044326 0 0 1 4.19328,0.87702 8.2221146,8.2221146 0 0 1 2.74071,2.20627 v -10.05839 a 0.97295022,0.97295022 0 0 1 0.31519,-0.7811 1.0140608,1.0140608 0 0 1 0.75369,-0.30147 h 3.05589 a 1.0551714,1.0551714 0 0 1 0.75369,0.30147 1.0140608,1.0140608 0 0 1 0.30147,0.7811 v 29.62702 a 1.0140608,1.0140608 0 0 1 -0.30147,0.7811 1.1099855,1.1099855 0 0 1 -0.75369,0.28778 h -2.83664 a 0.98665374,0.98665374 0 0 1 -1.06888,-1.06888 v -1.75404 a 8.7154414,8.7154414 0 0 1 -2.83663,2.357 9.2772859,9.2772859 0 0 1 -4.3029,0.7948 z m 1.37035,-4.3029 a 5.2210427,5.2210427 0 0 0 3.22033,-0.91814 5.4814097,5.4814097 0 0 0 1.79516,-2.3433 8.5372956,8.5372956 0 0 0 0.61666,-2.95997 18.033838,18.033838 0 0 0 0,-3.43958 7.4273101,7.4273101 0 0 0 -0.64406,-2.7407 5.0017863,5.0017863 0 0 0 -4.98809,-3.11071 5.2347462,5.2347462 0 0 0 -3.20662,0.89074 4.8647511,4.8647511 0 0 0 -1.72665,2.3707 11.78503,11.78503 0 0 0 -0.60295,3.17922 21.925639,21.925639 0 0 0 0,2.74071 11.78503,11.78503 0 0 0 0.60295,3.17922 4.8647511,4.8647511 0 0 0 1.72665,2.3707 5.3306709,5.3306709 0 0 0 3.16551,0.78111 z"
     id="path63"
     style="stroke-width:1.37036" />
  <path
     class="cls-2"
     d="m 317.43142,129.4824 a 0.95924669,0.95924669 0 0 1 -0.73999,-0.30149 0.98665374,0.98665374 0 0 1 -0.28777,-0.72628 v -2.86403 a 1.0825784,1.0825784 0 0 1 0.28777,-0.76741 0.97295022,0.97295022 0 0 1 0.73999,-0.31517 h 3.4944 a 1.0277643,1.0277643 0 0 1 0.75369,0.31517 1.0551714,1.0551714 0 0 1 0.31519,0.76741 v 2.83662 a 0.95924669,0.95924669 0 0 1 -0.31519,0.72629 1.0140608,1.0140608 0 0 1 -0.75369,0.30148 z m 0.26037,27.40705 a 0.98665374,0.98665374 0 0 1 -0.72629,-0.28778 1.0551714,1.0551714 0 0 1 -0.28777,-0.7811 v -21.19936 a 1.0551714,1.0551714 0 0 1 0.34259,-0.71258 0.98665374,0.98665374 0 0 1 0.72628,-0.28777 h 3.01477 a 0.98665374,0.98665374 0 0 1 0.7263,0.28777 1.0551714,1.0551714 0 0 1 0.28776,0.7811 v 21.13084 a 1.0551714,1.0551714 0 0 1 -0.28776,0.7811 0.98665374,0.98665374 0 0 1 -0.7263,0.28778 z"
     id="path65"
     style="stroke-width:1.37036" />
  <path
     class="cls-2"
     d="m 337.45227,157.27314 a 12.100212,12.100212 0 0 1 -5.8103,-1.27443 8.7702555,8.7702555 0 0 1 -3.57661,-3.59031 12.059101,12.059101 0 0 1 -1.37036,-5.24846 c 0,-0.54814 0,-1.1922 0,-1.97331 0,-0.7811 0,-1.37035 0,-1.9733 a 11.990584,11.990584 0 0 1 1.37036,-5.27586 8.8798837,8.8798837 0 0 1 3.61772,-3.56291 13.635007,13.635007 0 0 1 11.51096,0 8.9621049,8.9621049 0 0 1 3.61774,3.56291 11.990584,11.990584 0 0 1 1.37035,5.27586 q 0,0.8085 0,1.9733 c 0,0.78111 0,1.37036 0,1.97331 a 12.059101,12.059101 0 0 1 -1.37035,5.24846 8.7702555,8.7702555 0 0 1 -3.57663,3.59031 12.100212,12.100212 0 0 1 -5.78288,1.27443 z m 0,-4.02883 a 5.0017863,5.0017863 0 0 0 3.96032,-1.61702 7.3039784,7.3039784 0 0 0 1.64442,-4.7003 c 0,-0.43852 0,-1.02777 0,-1.74036 0,-0.71258 0,-1.30183 0,-1.74035 a 7.2765714,7.2765714 0 0 0 -1.57591,-4.7003 5.6595555,5.6595555 0 0 0 -7.92063,0 7.2765714,7.2765714 0 0 0 -1.57591,4.7003 c 0,0.43852 0,1.02777 0,1.74035 0,0.71259 0,1.37036 0,1.74036 a 7.3039784,7.3039784 0 0 0 1.57591,4.7003 5.0017863,5.0017863 0 0 0 3.8918,1.61702 z"
     id="path67"
     style="stroke-width:1.37036" />
  <path
     class="cls-2"
     d="m 354.15686,156.82093 a 0.94554317,0.94554317 0 0 1 -0.72628,-0.28778 1.0003573,1.0003573 0 0 1 -0.28778,-0.7811 v -29.62702 a 1.0003573,1.0003573 0 0 1 0.28778,-0.7811 0.91813612,0.91813612 0 0 1 0.72628,-0.30147 h 2.95997 a 1.0140608,1.0140608 0 0 1 0.7811,0.30147 1.0551714,1.0551714 0 0 1 0.28778,0.7811 v 29.62702 a 0.98665374,0.98665374 0 0 1 -1.06888,1.06888 z"
     id="path69"
     style="stroke-width:1.37036" />
  <path
     class="cls-2"
     d="m 373.82142,157.27314 a 12.004287,12.004287 0 0 1 -5.79659,-1.27443 8.7154414,8.7154414 0 0 1 -3.59032,-3.59031 11.867252,11.867252 0 0 1 -1.37036,-5.24846 c 0,-0.54814 0,-1.1922 0,-1.97331 0,-0.7811 0,-1.37035 0,-1.9733 a 11.798735,11.798735 0 0 1 1.37036,-5.27586 8.9621049,8.9621049 0 0 1 3.61773,-3.56291 13.703524,13.703524 0 0 1 11.52467,0 8.8524767,8.8524767 0 0 1 3.60402,3.56291 11.990584,11.990584 0 0 1 1.37036,5.27586 q 0,0.8085 0,1.9733 c 0,0.78111 0,1.37036 0,1.97331 a 12.250951,12.250951 0 0 1 -1.37036,5.24846 8.8798837,8.8798837 0 0 1 -3.59032,3.59031 12.100212,12.100212 0 0 1 -5.76919,1.27443 z m 0,-4.02883 a 5.0566004,5.0566004 0 0 0 3.97402,-1.61702 7.3039784,7.3039784 0 0 0 1.56221,-4.7003 c 0,-0.43852 0,-1.02777 0,-1.74036 0,-0.71258 0,-1.30183 0,-1.74035 a 7.2765714,7.2765714 0 0 0 -1.56221,-4.7003 5.673259,5.673259 0 0 0 -7.93433,0 7.345089,7.345089 0 0 0 -1.57591,4.7003 c 0,0.43852 0,1.02777 0,1.74035 0,0.71259 0,1.37036 0,1.74036 a 7.3861996,7.3861996 0 0 0 1.57591,4.7003 5.0017863,5.0017863 0 0 0 3.96031,1.61702 z"
     id="path71"
     style="stroke-width:1.37036" />
  <path
     class="cls-2"
     d="m 399.43331,166.66005 a 13.826856,13.826856 0 0 1 -5.16623,-0.8222 9.1265472,9.1265472 0 0 1 -3.16552,-2.01443 7.9891547,7.9891547 0 0 1 -1.64442,-2.3433 6.4817669,6.4817669 0 0 1 -0.52074,-1.83627 0.86332203,0.86332203 0 0 1 0.28778,-0.7674 1.0962819,1.0962819 0 0 1 0.7674,-0.31517 h 3.1107 a 1.2333171,1.2333171 0 0 1 0.65777,0.17814 1.3703524,1.3703524 0 0 1 0.43851,0.76739 11.826141,11.826141 0 0 0 0.75369,1.37036 3.974022,3.974022 0 0 0 1.49369,1.27442 5.906219,5.906219 0 0 0 2.7407,0.53444 8.3865568,8.3865568 0 0 0 3.12441,-0.50703 3.6999515,3.6999515 0 0 0 1.91849,-1.79516 7.5369383,7.5369383 0 0 0 0.67148,-3.5081 v -3.097 a 8.5784062,8.5784062 0 0 1 -2.7407,2.19257 9.2498789,9.2498789 0 0 1 -4.11107,0.84962 9.7569092,9.7569092 0 0 1 -4.17958,-0.82222 8.2221146,8.2221146 0 0 1 -2.90514,-2.26108 9.880241,9.880241 0 0 1 -1.72664,-3.35736 17.307551,17.307551 0 0 1 -0.67147,-4.11106 q 0,-1.24702 0,-2.46663 a 17.18422,17.18422 0 0 1 0.67147,-4.11106 10.017276,10.017276 0 0 1 1.72664,-3.41218 8.3317427,8.3317427 0 0 1 2.79552,-2.37071 9.5924669,9.5924669 0 0 1 4.17958,-0.84962 8.6743308,8.6743308 0 0 1 4.31661,0.98666 8.9072908,8.9072908 0 0 1 2.82292,2.41181 v -1.87737 a 1.0140608,1.0140608 0 0 1 0.30147,-0.7537 1.0003573,1.0003573 0 0 1 0.7537,-0.31518 h 2.87774 a 1.0688748,1.0688748 0 0 1 0.80852,0.31518 1.0140608,1.0140608 0 0 1 0.30147,0.7537 v 21.66526 a 12.538725,12.538725 0 0 1 -1.10999,5.48141 7.9343406,7.9343406 0 0 1 -3.46699,3.63144 12.799092,12.799092 0 0 1 -6.11177,1.30183 z m -0.19185,-14.04611 a 5.1525251,5.1525251 0 0 0 3.20662,-0.91813 5.358078,5.358078 0 0 0 1.79516,-2.3296 9.2635823,9.2635823 0 0 0 0.67148,-2.87774 c 0,-0.3974 0,-0.89073 0,-1.50739 0,-0.61666 0,-1.10998 0,-1.49369 a 9.3458035,9.3458035 0 0 0 -0.67148,-2.89144 5.2895603,5.2895603 0 0 0 -1.79516,-2.30219 5.2347462,5.2347462 0 0 0 -3.20662,-0.89073 5.1662286,5.1662286 0 0 0 -3.19293,0.89073 5.042897,5.042897 0 0 0 -1.72664,2.37071 10.825784,10.825784 0 0 0 -0.61666,3.17922 c 0,0.7811 0,1.5348 0,2.27478 a 10.962819,10.962819 0 0 0 0.61666,3.23404 5.1114145,5.1114145 0 0 0 1.72664,2.3707 5.2484498,5.2484498 0 0 0 3.19293,0.89073 z"
     id="path73"
     style="stroke-width:1.37036" />
  <path
     class="cls-2"
     d="m 424.51076,157.27314 a 8.6332203,8.6332203 0 0 1 -4.72771,-1.26072 8.0165617,8.0165617 0 0 1 -3.00108,-3.5081 12.497614,12.497614 0 0 1 -1.04147,-5.30327 v -12.57984 a 1.0551714,1.0551714 0 0 1 0.28778,-0.78109 0.97295022,0.97295022 0 0 1 0.72628,-0.28778 h 3.15182 a 1.0414678,1.0414678 0 0 1 0.76739,0.28778 1.0551714,1.0551714 0 0 1 0.28778,0.78109 v 12.33318 q 0,6.04326 5.23474,6.04326 a 5.2347462,5.2347462 0 0 0 4.00144,-1.58961 6.2625105,6.2625105 0 0 0 1.47997,-4.45365 v -12.33318 a 1.0551714,1.0551714 0 0 1 0.28778,-0.78109 1.0825784,1.0825784 0 0 1 0.78109,-0.28778 h 3.097 a 0.98665374,0.98665374 0 0 1 1.06888,1.06887 v 21.13084 a 0.98665374,0.98665374 0 0 1 -1.06888,1.06888 h -2.91884 a 0.97295022,0.97295022 0 0 1 -0.7263,-0.28778 1.0551714,1.0551714 0 0 1 -0.28777,-0.7811 v -1.89109 a 8.8935872,8.8935872 0 0 1 -2.94626,2.49405 9.7157987,9.7157987 0 0 1 -4.45364,0.91813 z"
     id="path75"
     style="stroke-width:1.37036" />
  <path
     class="cls-2"
     d="m 452.2878,157.27314 a 10.085794,10.085794 0 0 1 -7.55064,-2.80922 11.675402,11.675402 0 0 1 -3.04219,-7.97545 c 0,-0.32889 0,-0.7537 0,-1.28814 0,-0.53443 0,-0.95924 0,-1.26072 a 13.703524,13.703524 0 0 1 1.47999,-5.72807 9.3869141,9.3869141 0 0 1 3.64514,-3.74106 12.168729,12.168729 0 0 1 11.3191,0.16444 9.5924669,9.5924669 0 0 1 3.57663,4.11106 14.196851,14.196851 0 0 1 1.24702,6.13918 v 0.89072 a 1.0825784,1.0825784 0 0 1 -0.31518,0.7674 1.0140608,1.0140608 0 0 1 -0.7537,0.30148 h -14.96425 v 0.36999 a 8.4824815,8.4824815 0 0 0 0.65777,3.11071 5.4814097,5.4814097 0 0 0 1.82258,2.31589 4.6866053,4.6866053 0 0 0 2.87773,0.87702 5.4814097,5.4814097 0 0 0 2.30219,-0.4248 6.1665859,6.1665859 0 0 0 1.5211,-0.95925 5.4814097,5.4814097 0 0 0 0.8222,-0.84962 2.6173731,2.6173731 0 0 1 0.63037,-0.65777 1.8910863,1.8910863 0 0 1 0.7537,-0.10963 h 3.05588 a 1.0825784,1.0825784 0 0 1 0.72629,0.24666 0.72628678,0.72628678 0 0 1 0.24666,0.65778 3.6040269,3.6040269 0 0 1 -0.73999,1.71294 8.7702555,8.7702555 0 0 1 -1.9459,1.9733 10.77097,10.77097 0 0 1 -3.1244,1.58961 13.443158,13.443158 0 0 1 -4.2481,0.57555 z m -5.35808,-13.96389 h 10.79838 v -0.13703 a 7.920637,7.920637 0 0 0 -0.63036,-3.26144 5.3306709,5.3306709 0 0 0 -1.86368,-2.26108 5.042897,5.042897 0 0 0 -2.94626,-0.83592 4.9743793,4.9743793 0 0 0 -2.90515,0.83592 5.0840075,5.0840075 0 0 0 -1.83627,2.26108 8.1398934,8.1398934 0 0 0 -0.61666,3.26144 z"
     id="path77"
     style="stroke-width:1.37036" />
  <path
     class="cls-2"
     d="m 475.9812,157.27314 a 13.963891,13.963891 0 0 1 -4.41254,-0.63036 10.250236,10.250236 0 0 1 -3.00107,-1.5485 6.8517622,6.8517622 0 0 1 -1.72665,-1.84997 3.8643938,3.8643938 0 0 1 -0.60295,-1.5211 0.79480441,0.79480441 0 0 1 0.31518,-0.76739 1.1373925,1.1373925 0 0 1 0.69888,-0.26037 h 2.83663 a 0.8496185,0.8496185 0 0 1 0.35629,0 2.8503331,2.8503331 0 0 1 0.39741,0.34259 l 1.24702,1.12369 a 5.6184449,5.6184449 0 0 0 1.61701,0.95925 6.5502846,6.5502846 0 0 0 2.37071,0.38369 6.0706613,6.0706613 0 0 0 3.24774,-0.7948 2.4803379,2.4803379 0 0 0 1.37034,-2.24738 2.3433026,2.3433026 0 0 0 -0.56184,-1.61702 4.6317912,4.6317912 0 0 0 -1.9733,-1.12368 37.657284,37.657284 0 0 0 -4.02885,-1.06888 14.895731,14.895731 0 0 1 -4.11105,-1.50739 5.8788119,5.8788119 0 0 1 -2.31589,-2.23367 6.0295507,6.0295507 0 0 1 -0.74,-3.01477 5.9747366,5.9747366 0 0 1 0.79481,-3.24774 7.2628678,7.2628678 0 0 1 2.98737,-2.58997 10.962819,10.962819 0 0 1 4.96067,-1.01406 12.333171,12.333171 0 0 1 4.11106,0.60295 10.57912,10.57912 0 0 1 2.83663,1.47999 7.3587925,7.3587925 0 0 1 1.71294,1.76775 3.631434,3.631434 0 0 1 0.61666,1.52109 0.9044326,0.9044326 0 0 1 -0.27407,0.7811 1.0003573,1.0003573 0 0 1 -0.69887,0.28778 h -2.65849 a 0.79480441,0.79480441 0 0 1 -0.45222,-0.10963 2.0555286,2.0555286 0 0 1 -0.35629,-0.28778 c -0.31518,-0.32888 -0.67147,-0.67147 -1.05517,-1.02776 a 4.9880829,4.9880829 0 0 0 -1.43887,-0.91813 6.0158472,6.0158472 0 0 0 -2.32961,-0.3837 4.2754996,4.2754996 0 0 0 -2.87773,0.83592 2.5762626,2.5762626 0 0 0 -0.97296,2.06922 2.3433026,2.3433026 0 0 0 0.43852,1.37036 3.9603186,3.9603186 0 0 0 1.76775,1.12369 29.133692,29.133692 0 0 0 3.94663,1.09628 15.073876,15.073876 0 0 1 4.7003,1.58961 6.2076964,6.2076964 0 0 1 2.43923,2.3433 6.4543599,6.4543599 0 0 1 0.69888,3.00107 5.9884401,5.9884401 0 0 1 -1.12369,3.56292 7.5232348,7.5232348 0 0 1 -3.34366,2.50775 14.484626,14.484626 0 0 1 -5.41289,1.01405 z"
     id="path79"
     style="stroke-width:1.37036" />
  <path
     class="cls-2"
     d="m 238.26616,202.04256 a 1.0003573,1.0003573 0 0 1 -0.73999,-0.28778 1.0140608,1.0140608 0 0 1 -0.30147,-0.7811 v -29.1885 a 1.0277643,1.0277643 0 0 1 0.30147,-0.78111 1.0003573,1.0003573 0 0 1 0.73999,-0.28777 h 3.30255 a 1.0551714,1.0551714 0 0 1 0.7811,0.28777 1.0277643,1.0277643 0 0 1 0.30148,0.78111 v 11.94946 h 14.14203 v -11.94946 a 1.0277643,1.0277643 0 0 1 0.30149,-0.78111 1.1099855,1.1099855 0 0 1 0.76739,-0.28777 h 3.26144 a 1.0551714,1.0551714 0 0 1 0.7811,0.28777 1.0277643,1.0277643 0 0 1 0.30148,0.78111 v 29.1885 a 1.0140608,1.0140608 0 0 1 -0.30148,0.7811 1.0551714,1.0551714 0 0 1 -0.7811,0.28778 h -3.26144 a 1.1099855,1.1099855 0 0 1 -0.76739,-0.28778 1.0140608,1.0140608 0 0 1 -0.30149,-0.7811 V 188.6405 h -14.14203 v 12.33318 a 1.0140608,1.0140608 0 0 1 -0.30148,0.7811 1.0551714,1.0551714 0 0 1 -0.7811,0.28778 z"
     id="path81"
     style="stroke-width:1.37036" />
  <path
     class="cls-2"
     d="m 278.93822,202.49478 a 12.250951,12.250951 0 0 1 -5.8651,-1.27444 8.7017379,8.7017379 0 0 1 -3.61774,-3.59032 12.072805,12.072805 0 0 1 -1.37035,-5.24845 c 0,-0.54814 0,-1.19221 0,-1.9733 0,-0.78111 0,-1.37036 0,-1.97331 a 11.812438,11.812438 0 0 1 1.37035,-5.27587 8.9484013,8.9484013 0 0 1 3.64514,-3.56291 13.909077,13.909077 0 0 1 11.63429,0 8.9072908,8.9072908 0 0 1 3.65885,3.56291 11.812438,11.812438 0 0 1 1.37034,5.27587 q 0,0.80851 0,1.97331 c 0,0.78109 0,1.37034 0,1.9733 a 12.072805,12.072805 0 0 1 -1.37034,5.24845 8.7017379,8.7017379 0 0 1 -3.61774,3.59032 12.333171,12.333171 0 0 1 -5.8377,1.27444 z m 0,-4.02885 a 5.0977111,5.0977111 0 0 0 4.00143,-1.61701 7.1943502,7.1943502 0 0 0 1.58961,-4.70031 c 0,-0.43851 0,-1.02776 0,-1.74034 0,-0.71259 0,-1.30184 0,-1.74036 a 7.1943502,7.1943502 0 0 0 -1.58961,-4.7003 5.7554802,5.7554802 0 0 0 -8.00286,0 7.1943502,7.1943502 0 0 0 -1.58961,4.7003 c 0,0.43852 0,1.02777 0,1.74036 0,0.71258 0,1.37034 0,1.74034 a 7.1943502,7.1943502 0 0 0 1.58961,4.70031 5.0703039,5.0703039 0 0 0 4.00143,1.61701 z"
     id="path83"
     style="stroke-width:1.37036" />
  <path
     class="cls-2"
     d="m 303.59086,202.49478 a 14.237962,14.237962 0 0 1 -4.45365,-0.63038 10.524307,10.524307 0 0 1 -3.04217,-1.54849 6.9750938,6.9750938 0 0 1 -1.74036,-1.84998 3.8643938,3.8643938 0 0 1 -0.63036,-1.52108 0.79480441,0.79480441 0 0 1 0.31519,-0.7674 1.178503,1.178503 0 0 1 0.71258,-0.26037 h 2.86403 a 0.65776917,0.65776917 0 0 1 0.3563,0.0685 1.5896088,1.5896088 0 0 1 0.4111,0.32888 l 1.24702,1.12369 a 5.8925154,5.8925154 0 0 0 1.63072,0.95925 6.7147269,6.7147269 0 0 0 2.39812,0.3837 6.2214,6.2214 0 0 0 3.28884,-0.79481 2.4803379,2.4803379 0 0 0 1.37036,-2.24738 2.3021921,2.3021921 0 0 0 -0.56185,-1.61702 4.7551229,4.7551229 0 0 0 -1.98701,-1.12368 38.904305,38.904305 0 0 0 -4.11105,-1.06888 15.512389,15.512389 0 0 1 -4.20699,-1.49368 5.8925154,5.8925154 0 0 1 -2.3433,-2.24738 6.0295507,6.0295507 0 0 1 -0.74,-3.01477 5.9747366,5.9747366 0 0 1 1.00036,-3.24774 7.3861996,7.3861996 0 0 1 3.02849,-2.58997 11.099855,11.099855 0 0 1 5.00178,-1.01405 12.538725,12.538725 0 0 1 4.11106,0.60295 10.565417,10.565417 0 0 1 2.86404,1.47998 7.1806467,7.1806467 0 0 1 1.72664,1.76776 3.6862481,3.6862481 0 0 1 0.63036,1.52108 0.9044326,0.9044326 0 0 1 -0.27407,0.78111 1.0277643,1.0277643 0 0 1 -0.71258,0.28777 h -2.74071 a 0.79480441,0.79480441 0 0 1 -0.45222,-0.10963 1.6444229,1.6444229 0 0 1 -0.35628,-0.28778 l -1.06888,-1.02775 a 5.4814097,5.4814097 0 0 0 -1.46628,-0.91814 6.0432542,6.0432542 0 0 0 -2.3433,-0.3837 4.3440171,4.3440171 0 0 0 -2.90515,0.83592 2.6036696,2.6036696 0 0 0 -0.98665,2.08293 2.247378,2.247378 0 0 0 0.45221,1.37035 3.8643938,3.8643938 0 0 0 1.78147,1.12369 29.462577,29.462577 0 0 0 3.98772,1.09628 15.416464,15.416464 0 0 1 4.74142,1.58961 6.193993,6.193993 0 0 1 2.46663,2.3433 6.4680635,6.4680635 0 0 1 0.71258,3.00108 6.0021436,6.0021436 0 0 1 -1.13739,3.56291 7.6602701,7.6602701 0 0 1 -3.38477,2.50775 14.744992,14.744992 0 0 1 -5.454,0.94555 z"
     id="path85"
     style="stroke-width:1.37036" />
  <path
     class="cls-2"
     d="m 319.56917,210.55244 a 1.0140608,1.0140608 0 0 1 -0.73999,-0.30147 1.0551714,1.0551714 0 0 1 -0.28778,-0.78111 v -29.62702 a 1.0551714,1.0551714 0 0 1 0.28778,-0.78109 1.0003573,1.0003573 0 0 1 0.73999,-0.28778 h 2.93256 a 1.0003573,1.0003573 0 0 1 0.73998,0.28778 1.0688748,1.0688748 0 0 1 0.30149,0.78109 v 1.83628 a 8.5921097,8.5921097 0 0 1 2.83662,-2.39812 9.2635823,9.2635823 0 0 1 4.41254,-0.95924 9.880241,9.880241 0 0 1 4.11105,0.8085 8.3180392,8.3180392 0 0 1 2.93256,2.23368 9.9487586,9.9487586 0 0 1 1.79516,3.34365 14.62166,14.62166 0 0 1 0.64407,4.11107 q 0,0.76739 0,1.5622 0,0.7948 0,1.56219 a 14.566846,14.566846 0 0 1 -0.64407,4.11107 10.181719,10.181719 0 0 1 -1.76775,3.32995 8.2221146,8.2221146 0 0 1 -2.93256,2.26108 9.5924669,9.5924669 0 0 1 -4.17957,0.83592 9.044326,9.044326 0 0 1 -4.23439,-0.90443 7.7424912,7.7424912 0 0 1 -2.74071,-2.37071 v 10.25023 a 1.0277643,1.0277643 0 0 1 -0.31518,0.78111 1.0962819,1.0962819 0 0 1 -0.75369,0.30147 z m 9.85283,-12.33317 a 5.4814097,5.4814097 0 0 0 3.28885,-0.89073 5.0017863,5.0017863 0 0 0 1.69923,-2.37071 11.78503,11.78503 0 0 0 0.60296,-3.17922 21.925639,21.925639 0 0 0 0,-2.7407 11.78503,11.78503 0 0 0 -0.60296,-3.17922 5.0017863,5.0017863 0 0 0 -1.69923,-2.37071 5.4814097,5.4814097 0 0 0 -8.34545,2.37071 8.2221146,8.2221146 0 0 0 -0.63036,2.95997 c 0,0.50703 0,1.06887 0,1.69923 0,0.63036 0,1.20591 0,1.74035 a 7.4273101,7.4273101 0 0 0 0.64407,2.7407 5.2758568,5.2758568 0 0 0 1.86367,2.23368 5.3717815,5.3717815 0 0 0 3.17922,0.95925 z"
     id="path87"
     style="stroke-width:1.37036" />
  <path
     class="cls-2"
     d="m 346.37326,174.70402 a 0.95924669,0.95924669 0 0 1 -0.73998,-0.30148 0.98665374,0.98665374 0 0 1 -0.28778,-0.72628 v -2.86404 a 1.0825784,1.0825784 0 0 1 0.28778,-0.76739 0.97295022,0.97295022 0 0 1 0.73998,-0.31518 h 3.53552 a 1.0825784,1.0825784 0 0 1 0.76739,0.31518 1.0551714,1.0551714 0 0 1 0.31519,0.76739 v 2.83663 a 0.95924669,0.95924669 0 0 1 -0.31519,0.72629 1.0688748,1.0688748 0 0 1 -0.76739,0.30148 z m 0.27408,27.33854 a 1.0003573,1.0003573 0 0 1 -0.74,-0.28778 1.0551714,1.0551714 0 0 1 -0.28777,-0.7811 v -21.13084 a 1.0551714,1.0551714 0 0 1 0.28777,-0.78109 1.0003573,1.0003573 0 0 1 0.74,-0.28778 h 3.04218 a 1.0003573,1.0003573 0 0 1 0.73998,0.28778 1.0551714,1.0551714 0 0 1 0.28778,0.78109 v 21.13084 a 1.0551714,1.0551714 0 0 1 -0.28778,0.7811 1.0003573,1.0003573 0 0 1 -0.73998,0.28778 z"
     id="path89"
     style="stroke-width:1.37036" />
  <path
     class="cls-2"
     d="m 366.83262,202.04256 a 8.7702555,8.7702555 0 0 1 -4.30291,-0.94555 5.7143696,5.7143696 0 0 1 -2.52144,-2.7407 10.53801,10.53801 0 0 1 -0.83592,-4.42624 v -10.96282 h -3.49439 a 1.0825784,1.0825784 0 0 1 -0.7811,-0.28777 1.0414678,1.0414678 0 0 1 -0.28778,-0.74 v -2.11034 a 1.0551714,1.0551714 0 0 1 0.28778,-0.7811 1.0825784,1.0825784 0 0 1 0.7811,-0.28778 h 3.49439 v -7.4273 a 1.0140608,1.0140608 0 0 1 1.08258,-1.08258 h 2.94626 a 0.95924669,0.95924669 0 0 1 0.73999,0.30147 1.0551714,1.0551714 0 0 1 0.28778,0.78111 v 7.4273 H 369.82 a 1.0003573,1.0003573 0 0 1 0.73998,0.28778 1.0688748,1.0688748 0 0 1 0.30149,0.7811 v 2.11034 a 1.0551714,1.0551714 0 0 1 -0.30149,0.74 1.0003573,1.0003573 0 0 1 -0.73998,0.28777 h -5.59104 v 10.5106 a 5.8514049,5.8514049 0 0 0 0.69888,3.097 2.6036696,2.6036696 0 0 0 2.39811,1.10999 h 2.90514 a 1.0551714,1.0551714 0 0 1 0.7537,0.28776 0.95924669,0.95924669 0 0 1 0.31518,0.74 v 2.24738 a 0.97295022,0.97295022 0 0 1 -0.31518,0.7811 1.0551714,1.0551714 0 0 1 -0.7537,0.28777 z"
     id="path91"
     style="stroke-width:1.37036" />
  <path
     class="cls-2"
     d="m 382.08465,202.49478 a 9.3595071,9.3595071 0 0 1 -4.11106,-0.91814 8.0576723,8.0576723 0 0 1 -2.97367,-2.43924 5.6321485,5.6321485 0 0 1 -1.12368,-3.45328 5.8239978,5.8239978 0 0 1 2.53515,-4.96068 15.073876,15.073876 0 0 1 6.64621,-2.46663 l 6.35843,-0.89073 v -1.08258 a 4.3440171,4.3440171 0 0 0 -1.08258,-3.12441 4.7551229,4.7551229 0 0 0 -3.57661,-1.12368 5.3443744,5.3443744 0 0 0 -2.89145,0.71259 4.4399419,4.4399419 0 0 0 -1.63071,1.89108 0.94554317,0.94554317 0 0 1 -0.94555,0.61666 h -2.86404 a 0.89072908,0.89072908 0 0 1 -0.72629,-0.28777 1.0277643,1.0277643 0 0 1 -0.24666,-0.68519 3.8369868,3.8369868 0 0 1 0.53444,-1.72664 6.8517622,6.8517622 0 0 1 1.65813,-1.9733 8.9758084,8.9758084 0 0 1 2.87773,-1.60331 12.333171,12.333171 0 0 1 4.27551,-0.65777 13.511675,13.511675 0 0 1 4.65919,0.69888 8.1124864,8.1124864 0 0 1 3.00108,1.84997 7.2354608,7.2354608 0 0 1 1.63072,2.7407 9.9076481,9.9076481 0 0 1 0.50703,3.17922 v 14.23797 a 1.0551714,1.0551714 0 0 1 -0.28778,0.78109 1.0003573,1.0003573 0 0 1 -0.73999,0.28778 h -2.94625 a 1.0551714,1.0551714 0 0 1 -0.78111,-0.28778 1.0140608,1.0140608 0 0 1 -0.30147,-0.78109 v -1.8911 a 7.6191595,7.6191595 0 0 1 -1.5348,1.60332 8.0713758,8.0713758 0 0 1 -2.42553,1.26073 10.784673,10.784673 0 0 1 -3.49439,0.49333 z m 1.26072,-3.85069 a 6.8517622,6.8517622 0 0 0 3.0833,-0.7126 5.1525251,5.1525251 0 0 0 2.19256,-2.26108 8.2221146,8.2221146 0 0 0 0.8085,-3.83698 v -1.06888 l -4.83733,0.76741 a 10.236533,10.236533 0 0 0 -4.28921,1.37034 2.822926,2.822926 0 0 0 -1.43887,2.39813 2.7407049,2.7407049 0 0 0 0.64406,1.84997 4.1110573,4.1110573 0 0 0 1.68553,1.12369 5.9884401,5.9884401 0 0 0 2.15146,0.37 z"
     id="path93"
     style="stroke-width:1.37036" />
  <path
     class="cls-2"
     d="m 401.7355,202.04256 a 1.0003573,1.0003573 0 0 1 -0.73999,-0.28778 1.0551714,1.0551714 0 0 1 -0.28777,-0.7811 v -29.62702 a 1.0551714,1.0551714 0 0 1 0.28777,-0.78111 0.95924669,0.95924669 0 0 1 0.73999,-0.30147 h 2.98737 a 1.0277643,1.0277643 0 0 1 0.7811,0.30147 1.0551714,1.0551714 0 0 1 0.28777,0.78111 v 29.62702 a 1.0551714,1.0551714 0 0 1 -0.28777,0.7811 1.0825784,1.0825784 0 0 1 -0.7811,0.28778 z"
     id="path95"
     style="stroke-width:1.37036" />
  <path
     class="cls-2"
     d="m 413.58905,174.70402 a 0.95924669,0.95924669 0 0 1 -0.73999,-0.30148 0.98665374,0.98665374 0 0 1 -0.28778,-0.72628 v -2.86404 a 1.0825784,1.0825784 0 0 1 0.28778,-0.76739 0.97295022,0.97295022 0 0 1 0.73999,-0.31518 h 3.53551 a 1.0825784,1.0825784 0 0 1 0.76739,0.31518 1.0551714,1.0551714 0 0 1 0.31519,0.76739 v 2.83663 a 0.95924669,0.95924669 0 0 1 -0.31519,0.72629 1.0688748,1.0688748 0 0 1 -0.76739,0.30148 z m 0.27407,27.33854 a 1.0003573,1.0003573 0 0 1 -0.73998,-0.28778 1.0551714,1.0551714 0 0 1 -0.28778,-0.7811 v -21.13084 a 1.0551714,1.0551714 0 0 1 0.28778,-0.78109 1.0003573,1.0003573 0 0 1 0.73998,-0.28778 h 3.04218 a 1.0003573,1.0003573 0 0 1 0.74,0.28778 1.0551714,1.0551714 0 0 1 0.28776,0.78109 v 21.13084 a 1.0551714,1.0551714 0 0 1 -0.28776,0.7811 1.0003573,1.0003573 0 0 1 -0.74,0.28778 z"
     id="path97"
     style="stroke-width:1.37036" />
  <path
     class="cls-2"
     d="m 433.95248,202.49478 a 10.277643,10.277643 0 0 1 -7.63285,-2.86405 11.552071,11.552071 0 0 1 -3.05589,-7.97544 10.962819,10.962819 0 0 1 0,-1.28813 10.044683,10.044683 0 0 1 0,-1.26073 13.237605,13.237605 0 0 1 1.49369,-5.72807 9.2498789,9.2498789 0 0 1 3.67253,-3.72736 12.333171,12.333171 0 0 1 11.42874,0.15073 9.5924669,9.5924669 0 0 1 3.63144,4.11106 14.196851,14.196851 0 0 1 1.24702,6.13918 v 0.89073 a 1.0825784,1.0825784 0 0 1 -0.31519,0.7674 1.0277643,1.0277643 0 0 1 -0.75369,0.30148 h -15.07387 v 0.36999 a 8.2221146,8.2221146 0 0 0 0.67147,3.1107 5.3991885,5.3991885 0 0 0 1.83627,2.3159 4.7414194,4.7414194 0 0 0 2.90516,0.87703 5.6184449,5.6184449 0 0 0 2.23367,-0.37 6.3721387,6.3721387 0 0 0 1.54849,-0.95925 6.2488071,6.2488071 0 0 0 0.82222,-0.84962 2.3981167,2.3981167 0 0 1 0.63036,-0.65776 1.932197,1.932197 0 0 1 0.75369,-0.10964 h 3.097 a 1.0962819,1.0962819 0 0 1 0.73998,0.24667 0.72628678,0.72628678 0 0 1 0.24667,0.65777 3.6040269,3.6040269 0 0 1 -0.73998,1.71294 8.5647026,8.5647026 0 0 1 -1.95961,1.97331 10.962819,10.962819 0 0 1 -3.16552,1.58961 13.703524,13.703524 0 0 1 -4.2618,0.57555 z m -5.41288,-13.9639 h 10.96282 v -0.13703 a 7.7013806,7.7013806 0 0 0 -0.65778,-3.26144 5.0703039,5.0703039 0 0 0 -4.85105,-3.097 4.9880829,4.9880829 0 0 0 -4.78252,3.097 7.920637,7.920637 0 0 0 -0.63036,3.26144 z"
     id="path99"
     style="stroke-width:1.37036" />
  <path
     class="cls-2"
     d="m 450.82152,202.04256 a 1.0003573,1.0003573 0 0 1 -0.73998,-0.28778 1.0551714,1.0551714 0 0 1 -0.28778,-0.7811 v -21.13084 a 1.0551714,1.0551714 0 0 1 0.28778,-0.75369 0.93183964,0.93183964 0 0 1 0.73998,-0.31518 h 2.95996 a 1.0003573,1.0003573 0 0 1 0.7537,0.31518 1.0277643,1.0277643 0 0 1 0.31518,0.75369 v 1.9322 a 6.3173246,6.3173246 0 0 1 2.58997,-2.24737 8.7702555,8.7702555 0 0 1 3.76847,-0.7537 h 1.83627 a 0.98665374,0.98665374 0 0 1 1.02776,1.06887 v 2.60367 a 0.98665374,0.98665374 0 0 1 -1.02776,1.02777 h -3.1381 a 4.7825299,4.7825299 0 0 0 -3.56293,1.28813 4.8647511,4.8647511 0 0 0 -1.27442,3.53551 v 12.67576 a 1.0140608,1.0140608 0 0 1 -0.30148,0.7811 1.1647996,1.1647996 0 0 1 -0.80851,0.28778 z"
     id="path101"
     style="stroke-width:1.37036" />
  <path
     class="cls-2"
     d="m 476.20045,202.49478 a 14.11463,14.11463 0 0 1 -4.45364,-0.63038 10.181719,10.181719 0 0 1 -3.04218,-1.54849 7.057315,7.057315 0 0 1 -1.75406,-1.84998 3.8643938,3.8643938 0 0 1 -0.56185,-1.52108 0.82221146,0.82221146 0 0 1 0.31519,-0.7674 1.178503,1.178503 0 0 1 0.71258,-0.26037 h 2.86403 a 0.73999031,0.73999031 0 0 1 0.37,0.0685 1.8910863,1.8910863 0 0 1 0.39741,0.32888 l 1.24702,1.12369 a 5.9747366,5.9747366 0 0 0 1.64442,0.95925 6.6325058,6.6325058 0 0 0 2.38442,0.3837 6.2214,6.2214 0 0 0 3.28883,-0.79481 2.4940414,2.4940414 0 0 0 1.37036,-2.24738 2.3707097,2.3707097 0 0 0 -0.56184,-1.61702 4.8236406,4.8236406 0 0 0 -2.00072,-1.12368 37.122847,37.122847 0 0 0 -4.11105,-1.06888 15.690535,15.690535 0 0 1 -4.20699,-1.49368 5.9473295,5.9473295 0 0 1 -2.08294,-8.50989 7.3861996,7.3861996 0 0 1 3.02849,-2.58997 11.154669,11.154669 0 0 1 5.01549,-1.01405 12.456504,12.456504 0 0 1 4.11106,0.60295 10.565417,10.565417 0 0 1 2.86403,1.47998 7.1806467,7.1806467 0 0 1 1.72665,1.76776 3.5081022,3.5081022 0 0 1 0.63036,1.52108 0.87702555,0.87702555 0 0 1 -0.27407,0.78111 1.0003573,1.0003573 0 0 1 -0.71259,0.28777 h -2.7407 a 0.79480441,0.79480441 0 0 1 -0.45222,-0.10963 2.0555286,2.0555286 0 0 1 -0.35629,-0.28778 l -1.06887,-1.02775 a 5.385485,5.385485 0 0 0 -1.45258,-0.91814 6.1665859,6.1665859 0 0 0 -2.357,-0.3837 4.3714242,4.3714242 0 0 0 -2.90515,0.83592 2.6036696,2.6036696 0 0 0 -0.98665,2.08293 2.247378,2.247378 0 0 0 0.45222,1.37035 3.9192079,3.9192079 0 0 0 1.79515,1.12369 29.1611,29.1611 0 0 0 3.97402,1.09628 15.416464,15.416464 0 0 1 4.74143,1.58961 6.193993,6.193993 0 0 1 2.46663,2.3433 6.3036212,6.3036212 0 0 1 0.71259,3.00108 6.0021436,6.0021436 0 0 1 -1.13741,3.56291 7.6602701,7.6602701 0 0 1 -3.38476,2.50775 14.662771,14.662771 0 0 1 -5.50882,0.94555 z"
     id="path103"
     style="stroke-width:1.37036" />
</svg>
